<?xml version="1.0" encoding="UTF-8" standalone="no"?>
<!-- Created with Inkscape (http://www.inkscape.org/) -->

<svg width="512" height="91.434998" viewBox="0 0 135.46666 24.192177" version="1.1" id="svg9475" inkscape:version="1.1 (c68e22c387, 2021-05-23)" sodipodi:docname="cartplex_name_logo.svg"
   xmlns:inkscape="http://www.inkscape.org/namespaces/inkscape"
   xmlns:sodipodi="http://sodipodi.sourceforge.net/DTD/sodipodi-0.dtd"
   xmlns="http://www.w3.org/2000/svg"
   xmlns:svg="http://www.w3.org/2000/svg">
   <sodipodi:namedview id="namedview9477" pagecolor="#000000" bordercolor="#eeeeee" borderopacity="1" inkscape:pageshadow="0" inkscape:pageopacity="0" inkscape:pagecheckerboard="0" inkscape:document-units="px" showgrid="false" units="px" inkscape:zoom="0.66449955" inkscape:cx="459.74448" inkscape:cy="125.65847" inkscape:window-width="1280" inkscape:window-height="737" inkscape:window-x="-8" inkscape:window-y="-8" inkscape:window-maximized="1" inkscape:current-layer="layer1" showborder="false" />
   <defs id="defs9472">
      <inkscape:path-effect effect="offset" id="path-effect3843" is_visible="true" lpeversion="1" linejoin_type="miter" unit="mm" offset="0.8" miter_limit="4" attempt_force_join="false" update_on_knot_move="true" />
      <inkscape:path-effect effect="offset" id="path-effect2630" is_visible="true" lpeversion="1" linejoin_type="miter" unit="mm" offset="0.8" miter_limit="4" attempt_force_join="false" update_on_knot_move="true" />
      <inkscape:path-effect effect="offset" id="path-effect2208" is_visible="true" lpeversion="1" linejoin_type="miter" unit="mm" offset="0.8" miter_limit="4" attempt_force_join="false" update_on_knot_move="true" />
      <inkscape:path-effect effect="offset" id="path-effect2009" is_visible="true" lpeversion="1" linejoin_type="miter" unit="mm" offset="0.8" miter_limit="4" attempt_force_join="false" update_on_knot_move="true" />
      <inkscape:path-effect effect="offset" id="path-effect1957" is_visible="true" lpeversion="1" linejoin_type="miter" unit="mm" offset="0.8" miter_limit="4" attempt_force_join="false" update_on_knot_move="true" />
      <inkscape:path-effect effect="offset" id="path-effect1934" is_visible="true" lpeversion="1" linejoin_type="miter" unit="mm" offset="0.7" miter_limit="4" attempt_force_join="false" update_on_knot_move="true" />
      <inkscape:path-effect effect="offset" id="path-effect1543" is_visible="true" lpeversion="1" linejoin_type="miter" unit="mm" offset="0" miter_limit="4" attempt_force_join="false" update_on_knot_move="true" />
      <inkscape:path-effect effect="bspline" id="path-effect5517" is_visible="true" lpeversion="1" weight="33.333333" steps="2" helper_size="0" apply_no_weight="true" apply_with_weight="true" only_selected="false" />
      <inkscape:path-effect effect="bspline" id="path-effect4805" is_visible="true" lpeversion="1" weight="33.333333" steps="2" helper_size="0" apply_no_weight="true" apply_with_weight="true" only_selected="false" />
      <inkscape:path-effect effect="bspline" id="path-effect4801" is_visible="true" lpeversion="1" weight="33.333333" steps="2" helper_size="0" apply_no_weight="true" apply_with_weight="true" only_selected="false" />
   </defs>
   <g inkscape:label="Layer 1" inkscape:groupmode="layer" id="layer1">
      <g id="g1760" transform="translate(2.4335625,-56.680801)">
         <rect style="fill:#000000;fill-opacity:0;stroke-width:0.529167;stroke-linecap:round;stroke-linejoin:round;stroke-opacity:0.501961" id="rect843" width="135.46666" height="24.192114" x="-2.4335625" y="56.680801" ry="0.33923304" />
         <path id="path1329" style="font-weight:bold;font-size:10.5229px;line-height:1.25;font-family:Poppins;-inkscape-font-specification:'Poppins Bold';fill:#ffffff;fill-opacity:1;stroke-width:0.264582" d="m 17.670616,59.612681 c -1.687694,0 -3.201118,0.379706 -4.541347,1.140816 -1.323679,0.744577 -2.358558,1.795108 -3.103123,3.151899 -0.7445725,1.34021 -1.1164483,2.871724 -1.1164483,4.592514 0,1.720789 0.3718758,3.2511 1.1164483,4.591334 0.744565,1.340233 1.779444,2.390764 3.103123,3.151875 1.340229,0.744577 2.853653,1.116429 4.541347,1.116429 2.067225,0 3.837035,-0.536858 5.309198,-1.611281 l 1.618599,-4.469419 h -3.328612 c -0.347465,0.728019 -0.844106,1.283132 -1.489399,1.663688 -0.62875,0.380555 -1.349011,0.57042 -2.15976,0.57042 -1.307136,0 -2.365504,-0.455063 -3.176262,-1.365093 -0.810749,-0.910031 -1.216381,-2.125732 -1.216381,-3.647953 0,-1.522222 0.405632,-2.739126 1.216381,-3.649157 0.810758,-0.91003 1.869126,-1.365069 3.176262,-1.365069 0.810749,0 1.53101,0.191044 2.15976,0.571623 0.645293,0.380532 1.141934,0.934442 1.489399,1.662462 h 4.665664 C 25.439088,63.831526 24.454847,62.34282 22.982248,61.250778 21.509656,60.15876 19.73886,59.612681 17.670616,59.612681 Z" />
         <path d="m 36.186653,74.156119 h -6.502578 l -1.042398,3.077557 H 24.199076 L 30.503103,59.81073 h 4.914161 l 6.304024,17.422946 h -4.492237 z m -1.092037,-3.276124 -2.159252,-6.37847 -2.134433,6.37847 z" id="path1331" style="font-weight:bold;font-size:10.5229px;line-height:1.25;font-family:Poppins;-inkscape-font-specification:'Poppins Bold';fill:#ffffff;fill-opacity:1;stroke-width:0.264582" />
         <path id="path1333" style="font-weight:bold;font-size:10.5229px;line-height:1.25;font-family:Poppins;-inkscape-font-specification:'Poppins Bold';fill:#ffff00;fill-opacity:1;stroke-width:0.264582" d="m 41.754595,59.81014 v 11.970074 l 1.973277,5.453014 h 2.270671 v -6.576779 h 1.017718 l 3.623566,6.576779 h 4.789982 l -4.020905,-6.899761 c 1.274043,-0.380556 2.233571,-1.025459 2.878864,-1.93549 0.661843,-0.910031 0.992121,-1.943698 0.992121,-3.101921 0,-1.025836 -0.23927,-1.952825 -0.719105,-2.780141 -0.479834,-0.843849 -1.20792,-1.505616 -2.184135,-1.985444 -0.959664,-0.479851 -2.12593,-0.720331 -3.499243,-0.720331 z m 4.243948,3.524836 h 2.63022 c 0.777664,0 1.35749,0.189865 1.738047,0.57042 0.397101,0.380555 0.594785,0.901917 0.594785,1.563732 0,0.694929 -0.197696,1.233179 -0.594785,1.613734 -0.380557,0.380555 -0.960383,0.57042 -1.738047,0.57042 h -2.63022 z" />
         <path id="path1335" style="font-weight:bold;font-size:10.5229px;line-height:1.25;font-family:Poppins;-inkscape-font-specification:'Poppins Bold';fill:#ffffff;fill-opacity:1;stroke-width:0.264582" d="m 55.232356,59.81014 v 0.483861 c 0.369312,0.382772 0.693687,0.809225 0.96409,1.283439 -0.0019,-0.0024 -0.0019,-0.0071 -0.0038,-0.0094 l 0.0085,0.01415 c -0.0012,-0.0024 -0.0038,-0.0047 -0.005,-0.0071 0.301585,0.521527 0.526614,1.067606 0.6862,1.633215 h 2.965404 v 14.022572 h 4.243947 v -14.02258 h 4.616911 v -3.400515 z" />
         <path d="m 82.595362,65.419834 c 0,1.009303 -0.231635,1.935867 -0.694934,2.779716 -0.463287,0.827316 -1.174766,1.497433 -2.134433,2.010351 -0.959667,0.512918 -2.150978,0.769389 -3.573934,0.769389 h -2.630815 l 0.352165,3.671822 -4.596214,2.582564 V 59.81073 h 6.874864 c 1.389863,0 2.564629,0.239914 3.524296,0.719765 0.959666,0.479827 1.679419,1.141665 2.159254,1.985515 0.479835,0.843849 0.719751,1.811782 0.719751,2.903824 z m -6.725949,2.18406 c 0.810754,0 1.414682,-0.190337 1.811788,-0.570845 0.397103,-0.380555 0.595654,-0.918286 0.595654,-1.613215 0,-0.694953 -0.198544,-1.232683 -0.595654,-1.613238 -0.397106,-0.380556 -1.001034,-0.570845 -1.811788,-0.570845 h -2.308167 v 4.368143 z" id="path1337" style="font-weight:bold;font-size:10.5229px;line-height:1.25;font-family:Poppins;-inkscape-font-specification:'Poppins Bold';fill:#ffffff;fill-opacity:1;stroke-width:0.264582" sodipodi:nodetypes="scssccccsssssssssccs" />
         <path id="path1339" style="font-weight:bold;font-size:10.5229px;line-height:1.25;font-family:Poppins;-inkscape-font-specification:'Poppins Bold';fill:#ffff00;fill-opacity:1;stroke-width:0.264583" d="m 82.808272,59.810133 v 0.766644 c 0.264624,0.310147 0.501484,0.645761 0.708134,1.009182 0.663615,1.167045 0.967746,2.448913 0.967746,3.833205 0,1.316908 -0.30513,2.549084 -0.931184,3.689383 -0.216447,0.386561 -0.465033,0.742388 -0.744696,1.068909 v 7.055777 h 8.896197 V 73.957032 H 87.05222 V 59.810133 Z" />
         <path id="path1341" style="font-weight:bold;font-size:10.5229px;line-height:1.25;font-family:Poppins;-inkscape-font-specification:'Poppins Bold';fill:#ffffff;fill-opacity:1;stroke-width:0.264582" d="m 93.591211,59.81014 v 17.423088 h 9.441019 l 2.14026,-3.399289 h -7.337331 v -3.822228 h 5.683381 v -3.276219 h -5.683381 v -3.524836 h 6.428081 V 59.81014 Z" />
         <path d="m 116.75085,77.233676 -3.54911,-5.3361 -3.1272,5.3361 h -4.81488 l 5.58427,-8.860393 -5.70837,-8.562553 h 4.93898 l 3.49948,5.261639 3.07756,-5.261639 h 4.81488 l -5.53463,8.785933 5.758,8.637013 z" id="path1343" style="font-weight:bold;font-size:10.5229px;line-height:1.25;font-family:Poppins;-inkscape-font-specification:'Poppins Bold';fill:#ffffff;fill-opacity:1;stroke-width:0.264582" />
      </g>
   </g>
</svg>
