<svg width="54" height="53" viewBox="0 0 54 53" fill="none" xmlns="http://www.w3.org/2000/svg">
<path d="M2.33306 0.943843C1.7614 0.943263 1.73655 0.971416 1.63702 1.08508C1.50432 1.23663 1.23867 1.53991 1.10598 1.8128C0.973283 2.08569 0.973358 2.32815 1.06101 2.59488C1.14866 2.86163 1.32382 3.15263 1.63967 3.31014C1.9555 3.46764 2.41198 3.49175 3.16037 3.50387C3.90876 3.51599 4.94925 3.51596 6.06652 3.51596C7.18386 3.51596 8.37785 3.51598 9.29081 3.50989C10.2038 3.50383 10.8356 3.49197 11.247 3.53142C11.6584 3.57088 11.8492 3.66162 12.0244 3.78897C12.1995 3.91632 12.359 4.07996 12.4863 4.24365C12.6137 4.40735 12.7093 4.57096 12.7968 4.83467C12.8843 5.09837 12.9639 5.46205 13.0435 5.88941C13.1231 6.31678 13.2028 6.80808 13.5656 8.76746C13.9284 10.7268 14.5742 14.1541 15.1974 17.3081C15.8206 20.4622 16.4212 23.3429 17.0517 26.4846C17.6823 29.6266 18.3428 33.0298 18.797 35.4177C19.2511 37.8053 19.4988 39.177 19.739 40.1371C19.9793 41.0973 20.212 41.6462 20.4747 42.0877C20.7375 42.5292 21.0301 42.8634 21.3453 43.0004C21.6606 43.1375 21.9982 43.0778 23.2443 43.0435C24.4904 43.0092 26.645 43.0006 30.2669 42.9706C33.8887 42.9406 38.978 42.889 41.6725 42.7561C44.3672 42.6232 44.6673 42.4089 44.7837 42.1175C44.9 41.8261 44.8324 41.4575 44.6861 41.1745C44.5398 40.8916 44.3147 40.6946 43.7405 40.6088C43.1662 40.523 42.2431 40.5485 40.7605 40.5699C39.278 40.5913 37.2362 40.6085 35.1119 40.6171C32.9875 40.6257 30.7806 40.6259 28.7877 40.6216C26.7947 40.6173 25.0159 40.6085 23.9425 40.6043C22.8691 40.5999 22.5012 40.6001 22.2535 40.5744C22.0059 40.5487 21.8781 40.4973 21.7242 39.863C21.5702 39.2286 21.39 38.0113 21.1498 36.6696C20.9096 35.3279 20.6096 33.8617 20.4838 33.0986C20.3581 32.3355 20.4069 32.2756 21.0807 32.267C21.7544 32.2585 23.0529 32.3012 26.975 32.3376C30.8971 32.3741 37.4426 32.4041 40.7059 32.3935C43.9693 32.3829 43.9506 32.3315 44.1345 32.162C44.3184 31.9926 44.7048 31.7054 44.9919 31.3561C45.279 31.0068 45.4667 30.5953 45.6731 30.096C45.8795 29.5966 46.1047 29.0094 46.5232 27.9313C46.9417 26.8532 47.5532 25.2843 48.0862 23.9105C48.6191 22.5367 49.0736 21.3581 49.5014 20.25C49.9293 19.1419 50.3306 18.1048 50.9011 16.6088C51.4716 15.1128 52.2113 13.1583 52.6692 11.9558C53.1271 10.7535 53.3034 10.3031 53.2247 9.81228C53.1459 9.32154 52.8119 8.79028 52.4817 8.47729C52.1514 8.16429 51.8248 8.07003 51.2374 8.02071C50.65 7.97139 49.8016 7.96693 43.8405 7.98748C37.8798 8.00804 26.8034 7.70889 21.2014 7.955C15.5318 8.20408 15.2915 8.51515 15.2188 6.66838C15.18 5.68511 14.6404 4.07387 14.1309 3.06758C13.6214 2.06122 12.9419 1.69751 12.1935 1.46717C11.4451 1.23676 10.6276 1.1396 8.87864 1.07291C7.12969 1.00621 4.44929 0.969866 3.10896 0.951684C2.77388 0.947154 2.52279 0.943953 2.33222 0.943756L2.33306 0.943843ZM16.0307 10.3549C16.4661 10.3892 16.9016 10.4236 22.7154 10.4365C28.5291 10.4493 39.7211 10.4405 50.913 10.4319C50.9055 10.4748 50.898 10.518 50.4438 11.7053C49.9897 12.8926 49.0888 15.2245 48.0942 17.8564C47.0996 20.4883 46.0111 23.4202 45.2793 25.4266C44.5474 27.4327 44.1291 28.4929 43.9358 29.1128C43.6994 29.8709 43.6015 30.0175 39.6157 29.9145C35.6303 29.8115 27.7558 30.0386 19.8816 30.0814L16.0307 10.3549Z" fill="#00000E" stroke="#00000E" stroke-width="0.999996"/>
<path d="M21.021 40.6518C20.3686 40.6518 19.7225 40.7985 19.1198 41.0837C18.517 41.3688 17.9693 41.7868 17.508 42.3137C17.0466 42.8406 16.6807 43.4661 16.431 44.1545C16.1813 44.8429 16.0528 45.5808 16.0529 46.3259C16.0528 47.071 16.1813 47.8089 16.431 48.4973C16.6807 49.1857 17.0466 49.8112 17.508 50.3381C17.9693 50.865 18.517 51.2829 19.1198 51.5681C19.7225 51.8532 20.3686 52 21.021 52C21.6734 52 22.3195 51.8532 22.9222 51.5681C23.525 51.2829 24.0727 50.865 24.534 50.3381C24.9954 49.8112 25.3613 49.1857 25.611 48.4973C25.8606 47.8089 25.9891 47.071 25.9891 46.3259C25.9891 45.5808 25.8606 44.8429 25.611 44.1545C25.3613 43.4661 24.9954 42.8406 24.534 42.3137C24.0727 41.7868 23.525 41.3688 22.9222 41.0837C22.3195 40.7985 21.6734 40.6518 21.021 40.6518V40.6518ZM21.021 42.8342C21.8318 42.8342 22.6095 43.2021 23.1828 43.8569C23.7562 44.5117 24.0783 45.3998 24.0783 46.3259C24.0783 47.2519 23.7562 48.1401 23.1828 48.7949C22.6095 49.4497 21.8318 49.8176 21.021 49.8176C20.2102 49.8176 19.4325 49.4497 18.8592 48.7949C18.2858 48.1401 17.9637 47.2519 17.9637 46.3259C17.9637 45.3998 18.2858 44.5117 18.8592 43.8569C19.4325 43.2021 20.2102 42.8342 21.021 42.8342V42.8342Z" fill="#00000E" stroke="#00000E" stroke-width="0.999996" stroke-linecap="round" stroke-linejoin="round"/>
<path d="M44.2053 40.5064C43.5528 40.5064 42.9068 40.6531 42.304 40.9383C41.7012 41.2234 41.1535 41.6414 40.6922 42.1683C40.2309 42.6951 39.8649 43.3207 39.6152 44.0091C39.3656 44.6975 39.2371 45.4353 39.2371 46.1805C39.2371 46.9256 39.3656 47.6635 39.6152 48.3519C39.8649 49.0403 40.2309 49.6658 40.6922 50.1927C41.1535 50.7196 41.7012 51.1375 42.304 51.4227C42.9068 51.7078 43.5528 51.8546 44.2053 51.8546C44.8577 51.8546 45.5037 51.7078 46.1065 51.4227C46.7093 51.1375 47.257 50.7196 47.7183 50.1927C48.1797 49.6658 48.5456 49.0403 48.7953 48.3519C49.045 47.6635 49.1735 46.9256 49.1735 46.1805C49.1735 45.4353 49.045 44.6975 48.7953 44.0091C48.5456 43.3207 48.1797 42.6951 47.7183 42.1683C47.257 41.6414 46.7093 41.2234 46.1065 40.9383C45.5037 40.6531 44.8577 40.5064 44.2053 40.5064ZM44.2053 42.6888C45.0161 42.6888 45.7937 43.0567 46.3671 43.7115C46.9404 44.3663 47.2626 45.2544 47.2626 46.1805C47.2626 47.1065 46.9404 47.9947 46.3671 48.6495C45.7937 49.3043 45.0161 49.6722 44.2053 49.6722C43.3944 49.6722 42.6168 49.3043 42.0434 48.6495C41.4701 47.9947 41.148 47.1065 41.148 46.1805C41.148 45.2544 41.4701 44.3663 42.0434 43.7115C42.6168 43.0567 43.3944 42.6888 44.2053 42.6888V42.6888Z" fill="#00000E" stroke="#00000E" stroke-width="0.999996" stroke-linecap="round" stroke-linejoin="round"/>
</svg>
