<?xml version="1.0" encoding="UTF-8" standalone="no"?>
<!-- Created with Inkscape (http://www.inkscape.org/) -->

<svg
   width="380"
   height="380"
   viewBox="0 0 100.54166 100.54167"
   version="1.1"
   id="svg9475"
   inkscape:version="1.1 (c68e22c387, 2021-05-23)"
   sodipodi:docname="drawing.svg"
   xmlns:inkscape="http://www.inkscape.org/namespaces/inkscape"
   xmlns:sodipodi="http://sodipodi.sourceforge.net/DTD/sodipodi-0.dtd"
   xmlns="http://www.w3.org/2000/svg"
   xmlns:svg="http://www.w3.org/2000/svg">
  <sodipodi:namedview
     id="namedview9477"
     pagecolor="#ffffff"
     bordercolor="#eeeeee"
     borderopacity="1"
     inkscape:pageshadow="0"
     inkscape:pageopacity="0"
     inkscape:pagecheckerboard="0"
     inkscape:document-units="px"
     showgrid="false"
     units="px"
     inkscape:zoom="0.93974428"
     inkscape:cx="269.75424"
     inkscape:cy="343.17847"
     inkscape:window-width="1280"
     inkscape:window-height="737"
     inkscape:window-x="-8"
     inkscape:window-y="-8"
     inkscape:window-maximized="1"
     inkscape:current-layer="layer1"
     showborder="true"
     width="380px" />
  <defs
     id="defs9472">
    <inkscape:path-effect
       effect="offset"
       id="path-effect3843"
       is_visible="true"
       lpeversion="1"
       linejoin_type="miter"
       unit="mm"
       offset="0.8"
       miter_limit="4"
       attempt_force_join="false"
       update_on_knot_move="true" />
    <inkscape:path-effect
       effect="offset"
       id="path-effect2630"
       is_visible="true"
       lpeversion="1"
       linejoin_type="miter"
       unit="mm"
       offset="0.8"
       miter_limit="4"
       attempt_force_join="false"
       update_on_knot_move="true" />
    <inkscape:path-effect
       effect="offset"
       id="path-effect2208"
       is_visible="true"
       lpeversion="1"
       linejoin_type="miter"
       unit="mm"
       offset="0.8"
       miter_limit="4"
       attempt_force_join="false"
       update_on_knot_move="true" />
    <inkscape:path-effect
       effect="offset"
       id="path-effect2009"
       is_visible="true"
       lpeversion="1"
       linejoin_type="miter"
       unit="mm"
       offset="0.8"
       miter_limit="4"
       attempt_force_join="false"
       update_on_knot_move="true" />
    <inkscape:path-effect
       effect="offset"
       id="path-effect1957"
       is_visible="true"
       lpeversion="1"
       linejoin_type="miter"
       unit="mm"
       offset="0.8"
       miter_limit="4"
       attempt_force_join="false"
       update_on_knot_move="true" />
    <inkscape:path-effect
       effect="offset"
       id="path-effect1934"
       is_visible="true"
       lpeversion="1"
       linejoin_type="miter"
       unit="mm"
       offset="0.7"
       miter_limit="4"
       attempt_force_join="false"
       update_on_knot_move="true" />
    <inkscape:path-effect
       effect="offset"
       id="path-effect1543"
       is_visible="true"
       lpeversion="1"
       linejoin_type="miter"
       unit="mm"
       offset="0"
       miter_limit="4"
       attempt_force_join="false"
       update_on_knot_move="true" />
    <inkscape:path-effect
       effect="bspline"
       id="path-effect5517"
       is_visible="true"
       lpeversion="1"
       weight="33.333333"
       steps="2"
       helper_size="0"
       apply_no_weight="true"
       apply_with_weight="true"
       only_selected="false" />
    <inkscape:path-effect
       effect="bspline"
       id="path-effect4805"
       is_visible="true"
       lpeversion="1"
       weight="33.333333"
       steps="2"
       helper_size="0"
       apply_no_weight="true"
       apply_with_weight="true"
       only_selected="false" />
    <inkscape:path-effect
       effect="bspline"
       id="path-effect4801"
       is_visible="true"
       lpeversion="1"
       weight="33.333333"
       steps="2"
       helper_size="0"
       apply_no_weight="true"
       apply_with_weight="true"
       only_selected="false" />
  </defs>
  <g
     inkscape:label="Layer 1"
     inkscape:groupmode="layer"
     id="layer1">
    <g
       id="g8351"
       transform="matrix(0.97376815,0,0,0.97376815,-12.540551,-12.928276)"
       style="stroke-width:1.02694">
      <rect
         style="fill:#ececec;stroke-width:0.543422;stroke-linecap:round;stroke-linejoin:round;stroke-opacity:0.501961"
         id="rect843"
         width="103.25011"
         height="103.25011"
         x="12.878375"
         y="13.276545"
         ry="1.4478209" />
      <g
         id="g1110"
         style="fill:#ffffff;stroke-width:1.22856"
         transform="matrix(0.83588721,0,0,0.83588721,10.585838,10.651183)">
        <g
           id="g6925"
           transform="matrix(0.9358216,0,0,0.9358216,12.478352,-2.8669346)"
           style="fill:#ffffff;stroke-width:1.31281">
          <circle
             style="fill:#ffffff;fill-opacity:1;stroke:none;stroke-width:0.694698;stroke-linecap:round;stroke-linejoin:round;stroke-opacity:0.501961"
             id="path6079"
             cx="63.707088"
             cy="115.46909"
             r="5.1762004" />
          <circle
             style="fill:#ffffff;fill-opacity:1;stroke:none;stroke-width:0.694698;stroke-linecap:round;stroke-linejoin:round;stroke-opacity:0.501961"
             id="circle6183"
             cx="100.73683"
             cy="116.6636"
             r="5.1762004" />
        </g>
        <path
           style="fill:#ffffff;stroke:none;stroke-width:0.325057px;stroke-linecap:butt;stroke-linejoin:miter;stroke-opacity:1"
           d="m 7.7562952,24.706611 c 3.8723668,2.698378 14.1593878,0 14.1593878,0 l 40.039552,69.350535 c 2.964137,0.03971 39.901945,3.118116 56.095235,0 2.52356,-0.48592 3.85488,-6.676826 3.85488,-6.676826 H 64.766461 L 23.86793,18.649816 H 5.5206027 c 0,0 0.4700134,4.826418 2.2356925,6.056795 z"
           id="path7040"
           sodipodi:nodetypes="accscccca" />
      </g>
      <g
         id="g3611"
         style="fill:#ffffff;stroke-width:0.976568"
         transform="matrix(1.0515787,0,0,1.0515787,-0.29169491,-3.8015938)">
        <g
           id="g3625"
           style="fill:#ffffff;stroke-width:0.976568">
          <path
             id="rect929"
             style="fill:#ffffff;fill-opacity:1;stroke:none;stroke-width:2.50633;stroke-linecap:round;stroke-linejoin:round"
             d="m 62.70467,48.105961 c -1.166618,0.342827 -1.854233,1.648682 -1.541636,2.928139 0.312597,1.279457 1.50349,2.033513 2.670108,1.690686 l 2.111006,-0.620349 c 1.166628,-0.342829 1.854192,-1.648895 1.541595,-2.928352 -0.312597,-1.279456 -1.503438,-2.033302 -2.670065,-1.690472 z m 8.629128,-2.535788 c -1.166626,0.34283 -1.854043,1.648627 -1.541446,2.928084 0.312597,1.279456 1.503291,2.03357 2.669918,1.690741 l 1.331066,-0.391152 10.199303,-2.997205 c 1.166627,-0.342829 2.357517,0.411227 2.670115,1.690683 0.312599,1.279457 -0.374966,2.585521 -1.541593,2.92835 l -2.306416,0.677773 -7.892887,2.319433 -5.944095,1.746754 c -1.166627,0.342829 -1.854182,1.648892 -1.541585,2.928348 0.312597,1.279457 1.503479,2.033514 2.670108,1.690686 l 5.944094,-1.746755 6.367553,-1.871192 c 1.166626,-0.342829 2.357323,0.411284 2.66992,1.690741 0.312597,1.279456 -0.374822,2.585255 -1.541449,2.928084 l -6.367553,1.871192 -0.461055,0.135487 c -1.166626,0.34283 -1.854185,1.648893 -1.541589,2.92835 0.312597,1.279457 1.503484,2.033514 2.670113,1.690684 l 0.461054,-0.135487 7.954525,-2.337546 c 1.166629,-0.34283 2.357519,0.411226 2.670108,1.690683 0.3126,1.279456 -0.37496,2.585521 -1.541588,2.928351 l -7.954523,2.337545 -2.415193,0.709739 c -1.166622,0.342827 -1.854186,1.648893 -1.54159,2.92835 0.312597,1.279456 1.503489,2.033511 2.670113,1.690683 L 80.564417,77.51184 92.427216,74.025793 108.50174,69.302078 100.60219,36.969261 75.944535,44.215245 Z M 59.945917,63.768431 c -1.166629,0.34283 -1.853998,1.648838 -1.541401,2.928294 0.312597,1.279457 1.503243,2.03336 2.669872,1.69053 l 4.279444,-1.257573 c 1.166628,-0.34283 1.854242,-1.648685 1.541647,-2.928142 -0.312599,-1.279457 -1.50349,-2.033513 -2.670118,-1.690683 z" />
        </g>
        <path
           style="fill:#ffffff;stroke:none;stroke-width:0.258385px;stroke-linecap:butt;stroke-linejoin:miter;stroke-opacity:1"
           d="m 80.123978,42.572596 c -0.680361,-2.26396 -2.041177,-6.792193 -0.944223,-9.431894 1.096953,-2.639701 4.651357,-3.390466 7.021115,-2.99143 2.369758,0.399036 3.554583,1.947519 4.62794,4.047438 1.073358,2.09992 2.035295,4.751113 2.434106,6.146955 0.398811,1.395842 0.234578,1.536614 0.03528,1.513276 -0.199297,-0.02334 -0.433916,-0.211033 -1.19637,-2.07736 -0.762454,-1.866326 -2.052487,-5.411158 -3.693875,-7.18703 -1.641388,-1.775872 -3.634086,-1.782255 -5.241233,-1.285452 -1.607147,0.496803 -2.82832,1.496759 -3.286769,2.862037 -0.458448,1.365278 -0.154141,3.095382 0.267865,4.863814 0.422007,1.768431 0.96163,3.574996 1.24315,4.572136 0.28152,0.99714 0.304983,1.184835 0.164337,1.255098 -0.140645,0.07026 -0.445649,0.02334 -0.598304,-1.44e-4 -0.152655,-0.02349 -0.152658,-0.02348 -0.833019,-2.287444 z"
           id="path5515"
           inkscape:path-effect="#path-effect5517"
           inkscape:original-d="m 80.804339,44.836556 c -1.360551,-4.527971 -2.721367,-9.056204 -4.082449,-13.584703 3.554883,-0.750546 7.109287,-1.501311 10.66364,-2.252385 1.185137,1.54881 2.369962,3.097293 3.554547,4.645544 0.962239,2.651564 1.924177,5.302757 2.885868,7.953737 -0.163975,0.141041 -0.328208,0.281813 -0.49271,0.422323 -0.234362,-0.187437 -0.468981,-0.375132 -0.703871,-0.563097 -1.289844,-3.544774 -2.579877,-7.089606 -3.870251,-10.634913 -1.992551,-0.0061 -3.985249,-0.0125 -5.978327,-0.01915 -1.220979,1.000279 -2.442152,2.000235 -3.663665,2.999987 0.304592,1.730478 0.608899,3.460582 0.91296,5.190528 0.53991,1.806903 1.079533,3.613468 1.618903,5.419805 0.02373,0.187965 0.04719,0.375661 0.07039,0.563094 -0.304752,-0.04666 -0.609756,-0.09358 -0.915032,-0.140771 z"
           sodipodi:nodetypes="sccccccccccccss" />
        <circle
           style="fill:#ffffff;fill-opacity:1;stroke:none;stroke-width:2.50633;stroke-linecap:round;stroke-linejoin:round"
           id="circle5465"
           cx="93.131599"
           cy="41.507233"
           r="0.97334218" />
        <circle
           style="fill:#ffffff;fill-opacity:1;stroke:none;stroke-width:2.50633;stroke-linecap:round;stroke-linejoin:round"
           id="path5178"
           cx="81.489922"
           cy="44.682236"
           r="0.97334218" />
      </g>
      <circle
         style="fill:#ececec;fill-opacity:1;stroke:none;stroke-width:2.6356;stroke-linecap:round;stroke-linejoin:round"
         id="path4572"
         cx="99.565056"
         cy="57.696213"
         r="5.3127689" />
      <path
         style="fill:#ffffff;fill-opacity:1;stroke:none;stroke-width:0.163028;stroke-linecap:butt;stroke-linejoin:miter;stroke-miterlimit:4;stroke-dasharray:none;stroke-opacity:1"
         d="m 100.85929,55.496732 c -1.18843,0.883773 -4.238465,2.448187 -4.238465,2.448187 l 2.451289,0.656524 1.414456,1.414775 z"
         id="path6316" />
    </g>
  </g>
</svg>
