<?xml version="1.0" encoding="UTF-8"?>
<!-- Created with Inkscape (http://www.inkscape.org/) -->
<svg width="53.234" height="45.12" version="1.1" viewBox="0 0 14.085 11.938" xmlns="http://www.w3.org/2000/svg">
 <g transform="matrix(.1693 0 0 .16898 7.4832 -5.7573)" fill="#fff" stroke="#fff">
  <path d="m-41.35 34.854c-0.89341-7.93e-4 -0.93225 0.03773-1.0878 0.19327-0.20738 0.20738-0.62254 0.62238-0.82992 0.9958-0.20738 0.37342-0.20726 0.70521-0.07028 1.0702 0.13698 0.36501 0.41073 0.76322 0.90434 0.97875 0.4936 0.21553 1.207 0.24852 2.3766 0.2651 1.1696 0.01659 2.7957 0.01654 4.5418 0.01654 1.7462 0 3.6122 2.9e-5 5.039-0.0083 1.4268-0.0083 2.4143-0.02453 3.0572 0.02946 0.64291 0.05399 0.94119 0.17817 1.2149 0.35243s0.52287 0.39818 0.72192 0.62218c0.19905 0.224 0.34843 0.44789 0.48524 0.80874 0.13681 0.36085 0.26109 0.85851 0.38551 1.4433 0.12442 0.58481 0.24902 1.2571 0.81597 3.9383 0.56695 2.6812 1.5762 7.3711 2.5502 11.687 0.97398 4.316 1.9126 8.2579 2.898 12.557 0.98542 4.2995 2.0177 8.9564 2.7275 12.224 0.70974 3.2671 1.0968 5.1441 1.4723 6.458 0.37545 1.3139 0.73915 2.065 1.1498 2.6691 0.41065 0.60413 0.86795 1.0615 1.3606 1.249 0.49269 0.18755 1.0203 0.10582 2.9678 0.05891 1.9474-0.04691 5.3147-0.05867 10.975-0.09973s13.614-0.11166 17.825-0.29352c4.2114-0.18186 4.6804-0.47516 4.8622-0.87385 0.18183-0.39869 0.0762-0.90319-0.15245-1.2904-0.22864-0.38717-0.58048-0.65668-1.4779-0.77411-0.89747-0.11743-2.3401-0.08256-4.6571-0.05323-2.3169 0.02933-5.5079 0.05286-8.8279 0.06459-3.32 0.01175-6.769 0.01207-9.8836 0.0062-3.1147-0.0059-5.8946-0.01791-7.5721-0.02376-1.6776-0.0059-2.2525-0.0057-2.6396-0.04082-0.3871-0.03514-0.58672-0.10556-0.82734-0.97358-0.24062-0.86803-0.52223-2.5338-0.89762-4.3698-0.37539-1.8359-0.84423-3.8423-1.0408-4.8865-0.19654-1.0442-0.12028-1.1262 0.93276-1.1379 1.053-0.01172 3.0822 0.04678 9.2118 0.09663 6.1296 0.04985 16.359 0.09099 21.459 0.07648 5.1001-0.0145 5.0709-0.0849 5.3583-0.31678 0.28739-0.23188 0.89131-0.6248 1.34-1.1028 0.44866-0.47798 0.74193-1.0411 1.0645-1.7244s0.67458-1.4869 1.3286-2.9621c0.65402-1.4752 1.6098-3.6221 2.4427-5.502 0.83292-1.8799 1.5431-3.4927 2.2118-5.009 0.66868-1.5163 1.2959-2.9355 2.1875-4.9826 0.89158-2.0471 2.0475-4.7217 2.7631-6.3671 0.71561-1.6453 0.99121-2.2616 0.86816-2.9332-0.12305-0.67153-0.64504-1.3985-1.1612-1.8268-0.51613-0.4283-1.0266-0.55728-1.9446-0.62477-0.918-0.06749-2.2439-0.0736-11.56-0.04548-9.3156 0.02813-26.626-0.38122-35.381-0.04444-8.8606 0.34084-9.2361 0.76651-9.3498-1.7606-0.06057-1.3455-0.90393-3.5503-1.7002-4.9273-0.79623-1.3771-1.8581-1.8748-3.0277-2.19-1.1696-0.31528-2.4472-0.44824-5.1806-0.5395-2.7333-0.09126-6.9223-0.141-9.017-0.16588-0.52367-0.0062-0.91608-0.01058-1.2139-0.01085zm21.407 12.878c0.68041 0.04693 1.3611 0.09403 10.447 0.11162 9.0858 0.0176 26.577 0.0055 44.068-0.0062-0.01175 0.05865-0.02355 0.1178-0.73329 1.7425-0.70974 1.6247-2.1177 4.8156-3.6721 8.4171-1.5544 3.6015-3.2554 7.6134-4.3992 10.359-1.1438 2.7451-1.7975 4.1959-2.0996 5.0441-0.36952 1.0374-0.52241 1.238-6.7515 1.0971-6.2285-0.14093-18.535 0.16975-30.841 0.22841z" stroke-width="1.5643px"/>
  <path d="m-12.144 89.19a7.7643 7.7643 0 0 0-7.7644 7.7644 7.7643 7.7643 0 0 0 7.7644 7.7644 7.7643 7.7643 0 0 0 7.7644-7.7644 7.7643 7.7643 0 0 0-7.7644-7.7644zm0 2.9864a4.778 4.778 0 0 1 4.778 4.778 4.778 4.778 0 0 1-4.778 4.778 4.778 4.778 0 0 1-4.778-4.778 4.778 4.778 0 0 1 4.778-4.778z" stroke-linecap="round" stroke-linejoin="round" stroke-width="1.5643"/>
  <path d="m24.089 88.991a7.7643 7.7643 0 0 0-7.7644 7.7644 7.7643 7.7643 0 0 0 7.7644 7.7644 7.7643 7.7643 0 0 0 7.7644-7.7644 7.7643 7.7643 0 0 0-7.7644-7.7644zm0 2.9864a4.778 4.778 0 0 1 4.778 4.778 4.778 4.778 0 0 1-4.778 4.778 4.778 4.778 0 0 1-4.778-4.778 4.778 4.778 0 0 1 4.778-4.778z" stroke-linecap="round" stroke-linejoin="round" stroke-width="1.5643"/>
 </g>
</svg>
