<?xml version="1.0" encoding="UTF-8"?>
<!-- Created with Inkscape (http://www.inkscape.org/) -->
<svg width="354.4" height="284.77" version="1.1" viewBox="0 0 93.769 75.346" xmlns="http://www.w3.org/2000/svg">
 <g transform="matrix(.74387 0 0 .74387 5.5306 -15.287)" fill="#fff" stroke-width="1.3443">
  <circle cx="63.707" cy="115.47" r="5.1762"/>
  <circle cx="100.74" cy="116.66" r="5.1762"/>
 </g>
 <path d="m1.7771 6.6305c3.0781 2.1449 11.255 0 11.255 0l31.827 55.126c2.3562 0.0315 31.718 2.4786 44.589 0 2.006-0.38626 3.0642-5.3073 3.0642-5.3073h-45.419l-32.51-54.633h-14.584s0.37361 3.8365 1.7771 4.8145z" fill="#fff"/>
 <path d="m47.972 18.057c-1.1666 0.34283-1.8542 1.6487-1.5416 2.9281s1.5035 2.0335 2.6701 1.6907l2.111-0.62035c1.1666-0.34283 1.8542-1.6489 1.5416-2.9284-0.3126-1.2795-1.5034-2.0333-2.6701-1.6905zm8.6291-2.5358c-1.1666 0.34283-1.854 1.6486-1.5414 2.9281 0.3126 1.2795 1.5033 2.0336 2.6699 1.6907l11.53-3.3884c1.1666-0.34283 2.3575 0.41123 2.6701 1.6907 0.3126 1.2795-0.37497 2.5855-1.5416 2.9284l-16.143 4.744c-1.1666 0.34283-1.8542 1.6489-1.5416 2.9283 0.3126 1.2795 1.5035 2.0335 2.6701 1.6907l12.312-3.6179c1.1666-0.34283 2.3573 0.41128 2.6699 1.6907 0.3126 1.2795-0.37482 2.5853-1.5414 2.9281l-6.8286 2.0067c-1.1666 0.34283-1.8542 1.6489-1.5416 2.9284 0.3126 1.2795 1.5035 2.0335 2.6701 1.6907l8.4156-2.473c1.1666-0.34283 2.3575 0.41123 2.6701 1.6907 0.3126 1.2795-0.37496 2.5855-1.5416 2.9284l-10.37 3.0473c-1.1666 0.34283-1.8542 1.6489-1.5416 2.9284 0.3126 1.2795 1.5035 2.0335 2.6701 1.6907l30.353-8.9195-7.8996-32.333-24.658 7.246zm-11.388 18.198c-1.1666 0.34283-1.854 1.6488-1.5414 2.9283 0.3126 1.2795 1.5032 2.0334 2.6699 1.6905l4.2794-1.2576c1.1666-0.34283 1.8542-1.6487 1.5416-2.9281-0.3126-1.2795-1.5035-2.0335-2.6701-1.6907z" fill="#ffb70c"/>
 <g fill="#fff">
  <path d="m65.392 12.524c-0.68036-2.264-2.0412-6.7922-0.94422-9.4319 1.097-2.6397 4.6514-3.3905 7.0211-2.9914 2.3698 0.39904 3.5546 1.9475 4.6279 4.0474 1.0734 2.0999 2.0353 4.7511 2.4341 6.147 0.39881 1.3958 0.23458 1.5366 0.03528 1.5133-0.1993-0.02334-0.43392-0.21103-1.1964-2.0774-0.76245-1.8663-2.0525-5.4112-3.6939-7.187-1.6414-1.7759-3.6341-1.7823-5.2412-1.2855-1.6071 0.4968-2.8283 1.4968-3.2868 2.862-0.45845 1.3653-0.15414 3.0954 0.26786 4.8638 0.42201 1.7684 0.96163 3.575 1.2432 4.5721s0.30498 1.1848 0.16434 1.2551c-0.14064 0.07026-0.44565 0.02334-0.5983-1.44e-4 -0.15266-0.02349-0.15266-0.02348-0.83302-2.2874z"/>
  <g>
   <circle cx="80.227" cy="28.432" r="5.0522"/>
   <circle cx="78.399" cy="11.458" r=".97334"/>
   <circle cx="66.758" cy="14.633" r=".97334"/>
  </g>
 </g>
 <path d="m81.457 26.341c-1.1301 0.84043-4.0306 2.3281-4.0306 2.3281l2.3311 0.62432 1.3451 1.3454z" fill="#ffb70c"/>
</svg>
