<?xml version="1.0" encoding="UTF-8"?>
<!-- Created with Inkscape (http://www.inkscape.org/) -->
<svg width="500" height="200" version="1.1" viewBox="0 0 132.29 52.917" xmlns="http://www.w3.org/2000/svg">
 <g>
  <g stroke-width=".26458">
   <path d="m50.77 23.098c-1.0194 0-1.9335 0.22925-2.7431 0.68908-0.79953 0.44972-1.4246 1.0843-1.8744 1.9038-0.44974 0.80952-0.67436 1.7346-0.67436 2.774 0 1.0394 0.22463 1.9637 0.67436 2.7733 0.44974 0.80951 1.0748 1.4441 1.8744 1.9038 0.80953 0.44972 1.7237 0.67432 2.7431 0.67432 1.2486 0 2.3177-0.32424 3.2069-0.97323l0.97767-2.6996h-2.0106c-0.2099 0.43972-0.50986 0.77504-0.89963 1.0049-0.37978 0.22986-0.81483 0.34454-1.3045 0.34454-0.78954 0-1.4288-0.27479-1.9185-0.82452-0.48971-0.5497-0.73472-1.284-0.73472-2.2035s0.24499-1.6545 0.73472-2.2042c0.48972-0.5497 1.129-0.82455 1.9185-0.82455 0.48971 0 0.92476 0.11554 1.3045 0.34528 0.38977 0.22986 0.68975 0.56444 0.89963 1.0042h2.8182c-0.29982-1.1393-0.89433-2.0385-1.7838-2.6981-0.88948-0.65962-1.9591-0.98946-3.2083-0.98946z" fill="#fff"/>
   <path d="m61.954 31.883h-3.9277l-0.62963 1.8589h-2.6834l3.8078-10.524h2.9683l3.8078 10.524h-2.7134zm-0.65962-1.9789-1.3042-3.8527-1.2892 3.8527z" fill="#fff"/>
   <path d="m65.317 23.217v7.2302l1.1919 3.2937h1.3715v-3.9725h0.61473l2.1887 3.9725h2.8933l-2.4287-4.1676c0.76955-0.22986 1.3491-0.61942 1.7389-1.1691 0.39977-0.54967 0.59926-1.174 0.59926-1.8736 0-0.61964-0.14455-1.1795-0.43436-1.6793-0.28983-0.50969-0.72961-0.90944-1.3193-1.1993-0.57966-0.28977-1.2841-0.43508-2.1136-0.43508zm2.5634 2.1291h1.5887c0.46972 0 0.81995 0.11462 1.0498 0.34454 0.23988 0.22986 0.35926 0.54478 0.35926 0.94453 0 0.41973-0.11942 0.74487-0.35926 0.97472-0.22986 0.22986-0.58009 0.34454-1.0498 0.34454h-1.5887z" fill="#ff0"/>
   <path d="m73.458 23.217v0.29221c0.22307 0.23108 0.419 0.48878 0.58233 0.77522-0.0011-0.0014-0.0011-0.0031-0.0023-0.0061l0.0052 0.0092c-7.55e-4 -0.0014-0.0023-0.0027-3e-3 -0.0031 0.18217 0.31501 0.31808 0.64485 0.41448 0.98649h1.7912v8.4699h2.5634v-8.4699h2.7887v-2.054z" fill="#fff"/>
   <path d="m89.986 26.606c0 0.60964-0.1399 1.1693-0.41975 1.679-0.27983 0.49973-0.70958 0.90448-1.2892 1.2143-0.57966 0.30982-1.2992 0.46473-2.1587 0.46473h-1.5891l0.21271 2.2178-2.7762 1.5599v-10.524h4.1526c0.83951 0 1.5491 0.14488 2.1288 0.43474 0.57966 0.28977 1.0144 0.6896 1.3042 1.1993 0.28983 0.50969 0.43474 1.0944 0.43475 1.754zm-4.0626 1.3192c0.48972 0 0.8545-0.11493 1.0944-0.34479 0.23985-0.22986 0.35979-0.55468 0.35979-0.97442 0-0.41977-0.11994-0.74456-0.35979-0.97445-0.23988-0.22986-0.60464-0.34479-1.0944-0.34479h-1.3942v2.6384z" fill="#fff"/>
  </g>
  <path d="m90.114 23.217v0.46308c0.15983 0.18737 0.30291 0.39005 0.42773 0.60955 0.40084 0.70492 0.58454 1.4792 0.58454 2.3154 0 0.79542-0.18431 1.5397-0.56246 2.2285-0.13073 0.23353-0.2809 0.4484-0.44981 0.64565v4.2618h5.3735v-1.9789h-2.8101v-8.545z" fill="#ff0" stroke-width=".26458"/>
 </g>
 <g fill="#fff">
  <path d="m96.627 23.217v10.524h5.7026l1.2928-2.0533h-4.4319v-2.3087h3.4329v-1.9789h-3.4329v-2.1291h3.8827v-2.054z" stroke-width=".26458"/>
  <path d="m110.62 33.742-2.1438-3.2231-1.8889 3.2231h-2.9083l3.373-5.3519-3.448-5.1719h2.9832l2.1138 3.1781 1.8589-3.1781h2.9083l-3.343 5.3069 3.478 5.2169z" stroke-width=".26458"/>
  <circle cx="25.577" cy="28.457" r="12.405" stroke-linecap="round" stroke-linejoin="round" stroke-width="1.0001"/>
 </g>
 <g transform="matrix(1.6024 0 0 1.6024 9.7954 -8.2479)" stroke-width=".62406">
  <g transform="matrix(.080306 0 0 .080306 3.4001 18.443)" stroke-width="7.771">
   <g transform="matrix(1.0747 0 0 1.0747 7.99 -9.6824)" stroke-width="7.231">
    <circle cx="63.707" cy="115.47" r="5.1762"/>
    <circle cx="100.74" cy="116.66" r="5.1762"/>
   </g>
   <path d="m2.5674 21.982c4.4469 3.0987 16.26 0 16.26 0l45.98 79.639c3.4039 0.0456 45.822 3.5807 64.417 0 2.898-0.55801 4.4268-7.6674 4.4268-7.6674h-65.616l-46.966-78.927h-21.069s0.53974 5.5424 2.5674 6.9554z"/>
   <g transform="translate(0 4.7625)" stroke-width="7.771">
    <g transform="matrix(1.4447 0 0 1.4447 -21.283 -31.008)" stroke-width="5.379">
     <g stroke-width="5.379">
      <path d="m62.705 48.106c-1.1666 0.34283-1.8542 1.6487-1.5416 2.9281s1.5035 2.0335 2.6701 1.6907l2.111-0.62035c1.1666-0.34283 1.8542-1.6489 1.5416-2.9284-0.3126-1.2795-1.5034-2.0333-2.6701-1.6905zm8.6291-2.5358c-1.1666 0.34283-1.854 1.6486-1.5414 2.9281 0.3126 1.2795 1.5033 2.0336 2.6699 1.6907l11.53-3.3884c1.1666-0.34283 2.3575 0.41123 2.6701 1.6907 0.3126 1.2795-0.37497 2.5855-1.5416 2.9284l-16.143 4.744c-1.1666 0.34283-1.8542 1.6489-1.5416 2.9283 0.3126 1.2795 1.5035 2.0335 2.6701 1.6907l12.312-3.6179c1.1666-0.34283 2.3573 0.41128 2.6699 1.6907 0.3126 1.2795-0.37482 2.5853-1.5414 2.9281l-6.8286 2.0067c-1.1666 0.34283-1.8542 1.6489-1.5416 2.9284 0.3126 1.2795 1.5035 2.0335 2.6701 1.6907l8.4156-2.473c1.1666-0.34283 2.3575 0.41123 2.6701 1.6907 0.3126 1.2795-0.37496 2.5855-1.5416 2.9284l-10.37 3.0473c-1.1666 0.34283-1.8542 1.6489-1.5416 2.9284 0.3126 1.2795 1.5035 2.0335 2.6701 1.6907l30.353-8.9195-7.8996-32.333-24.658 7.246zm-11.388 18.198c-1.1666 0.34283-1.854 1.6488-1.5414 2.9283 0.3126 1.2795 1.5032 2.0334 2.6699 1.6905l4.2794-1.2576c1.1666-0.34283 1.8542-1.6487 1.5416-2.9281-0.3126-1.2795-1.5035-2.0335-2.6701-1.6907z" fill="#ffb70c"/>
     </g>
     <path d="m80.124 42.573c-0.68036-2.264-2.0412-6.7922-0.94422-9.4319 1.097-2.6397 4.6514-3.3905 7.0211-2.9914s3.5546 1.9475 4.6279 4.0474c1.0734 2.0999 2.0353 4.7511 2.4341 6.147s0.23458 1.5366 0.03528 1.5133c-0.1993-0.02334-0.43392-0.21103-1.1964-2.0774-0.76245-1.8663-2.0525-5.4112-3.6939-7.187s-3.6341-1.7823-5.2412-1.2855-2.8283 1.4968-3.2868 2.862c-0.45845 1.3653-0.15414 3.0954 0.26786 4.8638 0.42201 1.7684 0.96163 3.575 1.2432 4.5721s0.30498 1.1848 0.16434 1.2551c-0.14064 0.07026-0.44565 0.02334-0.5983-1.44e-4 -0.15266-0.02349-0.15266-0.02348-0.83302-2.2874z"/>
     <circle cx="93.132" cy="41.507" r=".97334" fill="#fff"/>
     <circle cx="81.49" cy="44.682" r=".97334" fill="#fff"/>
    </g>
    <circle cx="115.9" cy="53.479" r="7.2988" fill="#fff"/>
    <path d="m117.68 50.457c-1.6327 1.2141-5.8229 3.3634-5.8229 3.3634l3.3676 0.90194 1.9432 1.9436z" fill="#ffb70c"/>
   </g>
  </g>
 </g>
 <text x="67.838913" y="445.3472" fill="#d5d5ff" font-family="Poppins" font-size="2.1167px" stroke-width=".26458" style="line-height:1.25" xml:space="preserve"><tspan x="67.838913" y="445.3472" fill="#d5d5ff" stroke-width=".26458"/></text>
 <text x="135.5723" y="441.1138" fill="#d5d5ff" font-family="Poppins" font-size="2.1167px" stroke-width=".26458" style="line-height:1.25" xml:space="preserve"><tspan x="135.5723" y="441.1138" fill="#d5d5ff" stroke-width=".26458"/></text>
</svg>
