<svg width="52" height="42" viewBox="0 0 52 42" fill="none" xmlns="http://www.w3.org/2000/svg">
<path d="M29.2532 41.158C30.4286 41.158 31.3816 40.2051 31.3816 39.0296C31.3816 37.8541 30.4286 36.9012 29.2532 36.9012C28.0777 36.9012 27.1248 37.8541 27.1248 39.0296C27.1248 40.2051 28.0777 41.158 29.2532 41.158Z" fill="#00000E"/>
<path d="M44.4807 41.6473C45.6562 41.6473 46.6091 40.6944 46.6091 39.5189C46.6091 38.3434 45.6562 37.3905 44.4807 37.3905C43.3052 37.3905 42.3523 38.3434 42.3523 39.5189C42.3523 40.6944 43.3052 41.6473 44.4807 41.6473Z" fill="#00000E"/>
<path d="M0.982715 3.66493C2.6842 4.85057 7.20414 3.66493 7.20414 3.66493L24.7972 34.1369C26.0996 34.1544 42.3299 35.507 49.4446 34.1369C50.5535 33.9234 51.1384 31.2032 51.1384 31.2032H26.0322L8.0616 1.00373H0C0 1.00373 0.206521 3.12443 0.982328 3.66504L0.982715 3.66493Z" fill="#00000E"/>
<path d="M26.5179 9.98115C25.873 10.1707 25.4929 10.8925 25.6657 11.5997C25.8385 12.3069 26.4968 12.7238 27.1417 12.5343L28.3086 12.1914C28.9534 12.0019 29.3335 11.2799 29.1607 10.5726C28.9879 9.86538 28.3297 9.4487 27.6848 9.63819L26.5179 9.98115ZM31.2878 8.57944C30.6429 8.76894 30.263 9.49074 30.4357 10.198C30.6085 10.9053 31.2667 11.3221 31.9116 11.1326L38.285 9.25957C38.9299 9.07006 39.5882 9.48688 39.761 10.1941C39.9338 10.9014 39.5537 11.6233 38.9088 11.8129L29.9855 14.4352C29.3406 14.6247 28.9605 15.3467 29.1333 16.0539C29.3061 16.7612 29.9644 17.1779 30.6093 16.9885L37.415 14.9886C38.0598 14.7991 38.718 15.2159 38.8908 15.9232C39.0636 16.6304 38.6836 17.3522 38.0388 17.5417L34.2641 18.651C33.6193 18.8405 33.2392 19.5624 33.412 20.2697C33.5848 20.977 34.2431 21.3938 34.8879 21.2043L39.5398 19.8373C40.1847 19.6478 40.843 20.0646 41.0158 20.7718C41.1886 21.4791 40.8085 22.201 40.1636 22.3906L34.4314 24.075C33.7865 24.2645 33.4064 24.9865 33.5792 25.6938C33.752 26.401 34.4103 26.8178 35.0552 26.6283L51.8334 21.6979L47.4668 3.82517L33.8366 7.83055L31.2878 8.57944ZM24.9928 18.6388C24.348 18.8283 23.968 19.5502 24.1408 20.2574C24.3136 20.9647 24.9717 21.3814 25.6166 21.1919L27.9822 20.4967C28.627 20.3072 29.0071 19.5854 28.8343 18.8782C28.6615 18.1709 28.0032 17.7541 27.3584 17.9436L24.9928 18.6388Z" fill="#FFB70C"/>
<path d="M36.1471 6.92268C35.7711 5.67121 35.0188 3.16816 35.6252 1.70901C36.2316 0.249861 38.1964 -0.165158 39.5063 0.0554522C40.8162 0.27603 41.4711 1.13197 42.0644 2.29273C42.6578 3.4535 43.1895 4.919 43.4099 5.69061C43.6304 6.46217 43.5396 6.54 43.4294 6.52712C43.3193 6.51422 43.1896 6.41047 42.7681 5.3788C42.3466 4.34716 41.6335 2.38765 40.7262 1.40604C39.8189 0.424371 38.7174 0.420833 37.829 0.69545C36.9407 0.970066 36.2656 1.52284 36.0122 2.27748C35.7588 3.03218 35.927 3.98852 36.1603 4.96604C36.3935 5.94356 36.6918 6.9422 36.8475 7.49336C37.0031 8.04453 37.016 8.14829 36.9383 8.18715C36.8606 8.22598 36.692 8.20005 36.6076 8.18707C36.5232 8.17408 36.5232 8.17409 36.1471 6.92266L36.1471 6.92268Z" fill="#00000E"/>
<path d="M44.3475 18.5089C45.8899 18.5089 47.1402 17.2585 47.1402 15.7162C47.1402 14.1738 45.8899 12.9235 44.3475 12.9235C42.8051 12.9235 41.5548 14.1738 41.5548 15.7162C41.5548 17.2585 42.8051 18.5089 44.3475 18.5089Z" fill="white"/>
<path d="M43.337 6.87147C43.6342 6.87147 43.8751 6.63058 43.8751 6.33344C43.8751 6.03629 43.6342 5.7954 43.337 5.7954C43.0399 5.7954 42.799 6.03629 42.799 6.33344C42.799 6.63058 43.0399 6.87147 43.337 6.87147Z" fill="white"/>
<path d="M36.9022 8.62651C37.1994 8.62651 37.4403 8.38563 37.4403 8.08848C37.4403 7.79133 37.1994 7.55045 36.9022 7.55045C36.6051 7.55045 36.3642 7.79133 36.3642 8.08848C36.3642 8.38563 36.6051 8.62651 36.9022 8.62651Z" fill="white"/>
<path d="M45.0274 14.5603C44.4027 15.0249 42.7994 15.8472 42.7994 15.8472L44.088 16.1923L44.8315 16.936L45.0274 14.5603Z" fill="#FFB70C"/>
</svg>
