<svg width="208" height="39" viewBox="0 0 208 39" fill="none" xmlns="http://www.w3.org/2000/svg">
<path d="M31.5283 6.23931C28.9598 6.258 26.6608 6.85261 24.6296 8.02575C22.6234 9.17354 21.0601 10.7837 19.942 12.8568C18.8237 14.9047 18.2747 17.2395 18.2938 19.8583C18.3129 22.4771 18.8957 24.8019 20.0437 26.8333C21.1917 28.8647 22.7782 30.452 24.8011 31.5956C26.849 32.7139 29.1563 33.2631 31.7247 33.2444C34.8707 33.2215 37.5582 32.3849 39.7867 30.7335L42.2005 23.9138L37.1348 23.9506C36.6141 25.0624 35.8644 25.9127 34.8866 26.499C33.9339 27.0851 32.8399 27.382 31.6061 27.391C29.6168 27.4055 28.0011 26.7246 26.7572 25.3487C25.5132 23.9727 24.8825 22.1271 24.8656 19.8105C24.8488 17.4939 25.4526 15.6375 26.6764 14.2436C27.9001 12.8497 29.5058 12.1454 31.4951 12.131C32.7289 12.122 33.8271 12.4047 34.7882 12.977C35.7745 13.5489 36.5364 14.3864 37.0733 15.4905L44.1737 15.4388C43.3974 12.5738 41.8831 10.3191 39.6299 8.67344C37.3768 7.02786 34.6758 6.21641 31.5283 6.23931Z" fill="#00000E"/>
<path d="M59.868 28.1673L49.972 28.2393L48.4197 32.9344L41.6587 32.9836L51.0596 6.39863L58.5382 6.34422L68.3249 32.7896L61.4884 32.8393L59.868 28.1673ZM58.1698 23.1936L54.8131 13.5104L51.6354 23.2411L58.1698 23.1936Z" fill="#00000E"/>
<path d="M68.1827 6.27317L68.3153 24.4899L71.3787 32.7667L74.8343 32.7416L74.7615 22.7327L76.3103 22.7214L81.8976 32.6902L89.1873 32.6371L82.9917 22.1812C84.9264 21.588 86.3795 20.5959 87.3514 19.2038C88.3486 17.8116 88.8398 16.2348 88.827 14.4722C88.8156 12.911 88.4412 11.5029 87.7018 10.2492C86.9622 8.97027 85.8469 7.97123 84.3559 7.25181C82.8901 6.53217 81.1126 6.1791 79.0226 6.19431L68.1827 6.27317ZM74.6804 11.5905L78.6832 11.5613C79.8667 11.5527 80.7512 11.8353 81.3346 12.4102C81.9431 12.9849 82.2497 13.7762 82.2571 14.7834C82.2648 15.841 81.9699 16.6623 81.3698 17.2458C80.7948 17.8292 79.9145 18.1246 78.731 18.1332L74.7282 18.1623L74.6804 11.5905Z" fill="#FFB70C"/>
<path d="M88.6939 6.12393L88.6992 6.8603C89.2655 7.43873 89.7639 8.08413 90.1807 8.80282C90.1777 8.79919 90.1777 8.79204 90.1748 8.78856L90.1879 8.81C90.186 8.80636 90.182 8.80289 90.1802 8.79925C90.6449 9.5896 90.9934 10.4182 91.2426 11.2772L95.7555 11.2443L95.9107 32.5846L102.369 32.5376L102.214 11.1973L109.24 11.1462L109.203 5.97113L88.6939 6.12393Z" fill="#00000E"/>
<path d="M130.398 14.3581C130.41 15.8941 130.067 17.3068 129.372 18.5961C128.676 19.8603 127.6 20.888 126.146 21.6792C124.691 22.4704 122.881 22.8739 120.715 22.8897L116.711 22.9188L117.288 28.5029L110.322 32.484L110.129 5.96888L120.591 5.89276C122.707 5.87737 124.497 6.22948 125.963 6.94912C127.429 7.66872 128.531 8.66797 129.271 9.94687C130.011 11.2258 130.386 12.6962 130.398 14.3581V14.3581ZM120.187 17.7564C121.421 17.7474 122.338 17.4511 122.938 16.8676C123.538 16.284 123.834 15.4635 123.826 14.4059C123.819 13.3483 123.511 12.5321 122.902 11.9574C122.293 11.3826 121.372 11.0997 120.138 11.1087L116.626 11.1343L116.674 17.7819L120.187 17.7564Z" fill="#00000E"/>
<path d="M130.66 5.8186L130.669 6.98531C131.075 7.45438 131.439 7.96251 131.758 8.5133C132.781 10.282 133.258 12.2295 133.273 14.3362C133.287 16.3403 132.837 18.2189 131.897 19.9612C131.572 20.5518 131.197 21.0961 130.775 21.5961L130.853 32.334L144.392 32.2355L144.356 27.2496L137.276 27.3011L137.119 5.77161L130.66 5.8186Z" fill="#FFB70C"/>
<path d="M147.07 5.69923L147.263 32.2146L161.631 32.1101L164.851 26.9132L153.684 26.9944L153.642 21.1775L162.291 21.1146L162.255 16.1287L153.606 16.1916L153.567 10.8273L163.349 10.7562L163.312 5.58108L147.07 5.69923Z" fill="#00000E"/>
<path d="M182.509 31.9588L177.049 23.8774L172.348 32.0327L165.021 32.0861L173.421 18.54L164.639 5.57228L172.156 5.5176L177.54 13.4863L182.165 5.44478L189.492 5.39147L181.167 18.8236L190.025 31.9041L182.509 31.9588Z" fill="#00000E"/>
</svg>
